<svg width="32" height="32" viewBox="0 0 32 32" fill="none" xmlns="http://www.w3.org/2000/svg">
  <defs>
    <linearGradient id="favicon-gradient" x1="0%" y1="0%" x2="100%" y2="100%">
      <stop offset="0%" style="stop-color:#fb7185;stop-opacity:1" />
      <stop offset="50%" style="stop-color:#a855f7;stop-opacity:1" />
      <stop offset="100%" style="stop-color:#f59e0b;stop-opacity:1" />
    </linearGradient>
  </defs>
  
  <!-- Main Heart -->
  <path d="M16 27 C16 27, 6.5 19, 6.5 12.5 C6.5 8, 9.5 6, 12.5 6 C14.5 6, 15.5 7, 16 9 C16.5 7, 17.5 6, 19.5 6 C22.5 6, 25.5 8, 25.5 12.5 C25.5 19, 16 27, 16 27 Z" 
        fill="url(#favicon-gradient)"/>
  
  <!-- AI Nodes -->
  <circle cx="12" cy="13" r="1.2" fill="white" opacity="0.9"/>
  <circle cx="20" cy="13" r="1.2" fill="white" opacity="0.9"/>
  <circle cx="16" cy="17" r="1.2" fill="white" opacity="0.9"/>
  
  <!-- Connections -->
  <line x1="12" y1="13" x2="16" y2="17" stroke="white" stroke-width="0.8" opacity="0.5" stroke-linecap="round"/>
  <line x1="20" y1="13" x2="16" y2="17" stroke="white" stroke-width="0.8" opacity="0.5" stroke-linecap="round"/>
</svg>
